<svg version="1.1" id="Layer_1" x="0px" y="0px" viewBox="0 0 512 512" style="enable-background:new 0 0 512 512;" xmlns="http://www.w3.org/2000/svg">
  <defs>
    <path id="path-0" style="fill: none;" d="M 184.262 238.144 L 202.356 250.43 C 209.788 255.584 212.889 258.014 218.733 261.605"></path>
  </defs>
  <g transform="matrix(1.212467, 0, 0, 1.136417, -54.452679, -35.451458)" style="">
    <path d="M138.9,220L46.1,357c-2.7,4.4,0.1,10.1,5.2,10.7l183,19.4L138.9,220L138.9,220z M51.6,308.2l66.2-107.5l-67.4-40.4
		c-2.3-1.4-5.3,0.3-5.3,3v143.1C45.1,309.9,49.7,311.3,51.6,308.2z M61.1,403.3l170.9,77c4.7,2.2,10-1.3,10-6.4v-57.7L63,396.6
		C59.1,396.2,57.6,401.6,61.1,403.3L61.1,403.3z M132.5,176.7l70.3-125.6c3.8-6.2-3.2-13.4-9.5-9.8L60.7,128c-2.2,1.4-2.1,4.6,0.1,6
		L132.5,176.7L132.5,176.7z M256,185.7h96l-84-148c-2.8-4.5-7.4-6.7-12-6.7c-4.6,0-9.2,2.2-12,6.7l-84,148H256z M461.6,160.3
		l-67.4,40.4l66.2,107.5c1.9,3,6.5,1.7,6.5-1.8V163.3C466.9,160.6,464,158.9,461.6,160.3z M379.5,176.7l71.7-42.8
		c2.2-1.3,2.3-4.5,0.1-6L318.7,41.3c-6.3-3.6-13.3,3.6-9.5,9.8L379.5,176.7z M449,396.6l-178.9,19.6V474c0,5.1,5.3,8.5,10,6.4
		l170.9-77C454.4,401.6,452.9,396.2,449,396.6L449,396.6z M373.1,220l-95.5,167.1l183-19.4c5.1-0.6,7.9-6.3,5.2-10.7L373.1,220
		L373.1,220z M256,213.8h-88.3L256,368.3l88.3-154.5H256z"></path>
  </g>
</svg>